<mxfile host="app.diagrams.net" agent="Mozilla/5.0 (Windows NT 10.0; Win64; x64) AppleWebKit/537.36 (KHTML, like Gecko) Chrome/134.0.0.0 Safari/537.36" version="26.1.1">
  <diagram name="Pagina-1" id="QuZVqxnGBknG1rotCBPi">
    <mxGraphModel dx="1687" dy="868" grid="1" gridSize="10" guides="1" tooltips="1" connect="1" arrows="1" fold="1" page="1" pageScale="1" pageWidth="827" pageHeight="1169" math="0" shadow="0">
      <root>
        <mxCell id="0" />
        <mxCell id="1" parent="0" />
        <mxCell id="4-WogmKs3YgdANA_zJ1u-6" value="" style="edgeStyle=orthogonalEdgeStyle;rounded=0;orthogonalLoop=1;jettySize=auto;html=1;exitX=1;exitY=0.75;exitDx=0;exitDy=0;" parent="1" source="4-WogmKs3YgdANA_zJ1u-2" target="4-WogmKs3YgdANA_zJ1u-5" edge="1">
          <mxGeometry relative="1" as="geometry">
            <mxPoint x="650" y="230" as="sourcePoint" />
          </mxGeometry>
        </mxCell>
        <mxCell id="UN-OwFrIGuwgfvyjiJY6-12" value="" style="edgeStyle=orthogonalEdgeStyle;rounded=0;orthogonalLoop=1;jettySize=auto;html=1;" parent="1" source="4-WogmKs3YgdANA_zJ1u-2" target="UN-OwFrIGuwgfvyjiJY6-11" edge="1">
          <mxGeometry relative="1" as="geometry">
            <Array as="points">
              <mxPoint x="400" y="250" />
              <mxPoint x="400" y="250" />
            </Array>
          </mxGeometry>
        </mxCell>
        <mxCell id="4-WogmKs3YgdANA_zJ1u-2" value="&lt;font style=&quot;font-size: 18px;&quot;&gt;Alphonse Mucha&lt;/font&gt;" style="rounded=1;whiteSpace=wrap;html=1;fillColor=#f5f5f5;fontColor=#333333;strokeColor=#666666;" parent="1" vertex="1">
          <mxGeometry x="360" y="200" width="160" height="40" as="geometry" />
        </mxCell>
        <mxCell id="4-WogmKs3YgdANA_zJ1u-14" style="edgeStyle=orthogonalEdgeStyle;rounded=0;orthogonalLoop=1;jettySize=auto;html=1;entryX=0.5;entryY=0;entryDx=0;entryDy=0;" parent="1" source="4-WogmKs3YgdANA_zJ1u-5" target="4-WogmKs3YgdANA_zJ1u-10" edge="1">
          <mxGeometry relative="1" as="geometry">
            <Array as="points">
              <mxPoint x="980" y="320" />
            </Array>
          </mxGeometry>
        </mxCell>
        <mxCell id="4-WogmKs3YgdANA_zJ1u-15" style="edgeStyle=orthogonalEdgeStyle;rounded=0;orthogonalLoop=1;jettySize=auto;html=1;" parent="1" source="4-WogmKs3YgdANA_zJ1u-5" target="4-WogmKs3YgdANA_zJ1u-12" edge="1">
          <mxGeometry relative="1" as="geometry">
            <Array as="points">
              <mxPoint x="1220" y="320" />
            </Array>
          </mxGeometry>
        </mxCell>
        <mxCell id="4-WogmKs3YgdANA_zJ1u-18" value="" style="edgeStyle=orthogonalEdgeStyle;rounded=0;orthogonalLoop=1;jettySize=auto;html=1;" parent="1" source="4-WogmKs3YgdANA_zJ1u-5" target="4-WogmKs3YgdANA_zJ1u-8" edge="1">
          <mxGeometry relative="1" as="geometry">
            <Array as="points">
              <mxPoint x="780" y="320" />
            </Array>
          </mxGeometry>
        </mxCell>
        <mxCell id="UN-OwFrIGuwgfvyjiJY6-2" value="" style="edgeStyle=orthogonalEdgeStyle;rounded=0;orthogonalLoop=1;jettySize=auto;html=1;" parent="1" source="4-WogmKs3YgdANA_zJ1u-5" target="UN-OwFrIGuwgfvyjiJY6-1" edge="1">
          <mxGeometry relative="1" as="geometry">
            <Array as="points">
              <mxPoint x="1460" y="320" />
            </Array>
          </mxGeometry>
        </mxCell>
        <mxCell id="4-WogmKs3YgdANA_zJ1u-5" value="&lt;font style=&quot;font-size: 18px;&quot;&gt;Opere&lt;/font&gt;" style="whiteSpace=wrap;html=1;rounded=1;fillColor=#f5f5f5;fontColor=#333333;strokeColor=#666666;" parent="1" vertex="1">
          <mxGeometry x="810" y="280" width="120" height="40" as="geometry" />
        </mxCell>
        <mxCell id="4-WogmKs3YgdANA_zJ1u-8" value="&lt;font style=&quot;font-size: 18px;&quot;&gt;Stagioni&lt;/font&gt;" style="whiteSpace=wrap;html=1;rounded=1;fillColor=#f5f5f5;fontColor=#333333;strokeColor=#666666;" parent="1" vertex="1">
          <mxGeometry x="720" y="410" width="120" height="40" as="geometry" />
        </mxCell>
        <mxCell id="4-WogmKs3YgdANA_zJ1u-10" value="&lt;font style=&quot;font-size: 18px;&quot;&gt;Arti&lt;/font&gt;" style="whiteSpace=wrap;html=1;rounded=1;fillColor=#f5f5f5;fontColor=#333333;strokeColor=#666666;" parent="1" vertex="1">
          <mxGeometry x="920" y="410" width="120" height="40" as="geometry" />
        </mxCell>
        <mxCell id="4-WogmKs3YgdANA_zJ1u-11" value="&lt;font style=&quot;font-size: 18px;&quot;&gt;Sarah Bernardht&lt;/font&gt;" style="whiteSpace=wrap;html=1;rounded=1;fillColor=#f5f5f5;fontColor=#333333;strokeColor=#666666;" parent="1" vertex="1">
          <mxGeometry x="500" y="410" width="150" height="40" as="geometry" />
        </mxCell>
        <mxCell id="4-WogmKs3YgdANA_zJ1u-12" value="&lt;font style=&quot;font-size: 18px;&quot;&gt;Campagne Pubblicitarie&lt;/font&gt;" style="whiteSpace=wrap;html=1;rounded=1;fillColor=#f5f5f5;fontColor=#333333;strokeColor=#666666;" parent="1" vertex="1">
          <mxGeometry x="1121" y="410" width="209" height="40" as="geometry" />
        </mxCell>
        <mxCell id="4-WogmKs3YgdANA_zJ1u-16" style="edgeStyle=orthogonalEdgeStyle;rounded=0;orthogonalLoop=1;jettySize=auto;html=1;" parent="1" source="4-WogmKs3YgdANA_zJ1u-5" target="4-WogmKs3YgdANA_zJ1u-11" edge="1">
          <mxGeometry relative="1" as="geometry">
            <Array as="points">
              <mxPoint x="559" y="320" />
            </Array>
          </mxGeometry>
        </mxCell>
        <mxCell id="4-WogmKs3YgdANA_zJ1u-19" value="&lt;font style=&quot;font-size: 18px;&quot;&gt;Medèe&lt;/font&gt;" style="whiteSpace=wrap;html=1;rounded=1;" parent="1" vertex="1">
          <mxGeometry x="492.5" y="460" width="165" height="30" as="geometry" />
        </mxCell>
        <mxCell id="4-WogmKs3YgdANA_zJ1u-21" value="&lt;font style=&quot;font-size: 18px;&quot;&gt;Lorenzaccio&lt;/font&gt;" style="whiteSpace=wrap;html=1;rounded=1;" parent="1" vertex="1">
          <mxGeometry x="492.5" y="500" width="165" height="30" as="geometry" />
        </mxCell>
        <mxCell id="4-WogmKs3YgdANA_zJ1u-22" value="&lt;font style=&quot;font-size: 18px;&quot;&gt;Hamlet&lt;/font&gt;" style="whiteSpace=wrap;html=1;rounded=1;" parent="1" vertex="1">
          <mxGeometry x="492.5" y="640" width="165" height="30" as="geometry" />
        </mxCell>
        <mxCell id="4-WogmKs3YgdANA_zJ1u-23" value="&lt;font style=&quot;font-size: 18px;&quot;&gt;Gismonda&lt;/font&gt;" style="whiteSpace=wrap;html=1;rounded=1;" parent="1" vertex="1">
          <mxGeometry x="492.5" y="600" width="165" height="30" as="geometry" />
        </mxCell>
        <mxCell id="4-WogmKs3YgdANA_zJ1u-24" value="&lt;font style=&quot;font-size: 18px;&quot;&gt;La Dame aux Camèlias&lt;/font&gt;" style="whiteSpace=wrap;html=1;rounded=1;" parent="1" vertex="1">
          <mxGeometry x="492.5" y="540" width="165" height="50.5" as="geometry" />
        </mxCell>
        <mxCell id="4-WogmKs3YgdANA_zJ1u-25" value="&lt;font style=&quot;font-size: 18px;&quot;&gt;La Tosca&lt;/font&gt;" style="whiteSpace=wrap;html=1;rounded=1;" parent="1" vertex="1">
          <mxGeometry x="492.5" y="680" width="165" height="30" as="geometry" />
        </mxCell>
        <mxCell id="4-WogmKs3YgdANA_zJ1u-26" value="&lt;font style=&quot;font-size: 18px;&quot;&gt;La Samaritaine&lt;/font&gt;" style="whiteSpace=wrap;html=1;rounded=1;" parent="1" vertex="1">
          <mxGeometry x="492.5" y="720" width="165" height="30" as="geometry" />
        </mxCell>
        <mxCell id="4-WogmKs3YgdANA_zJ1u-27" value="&lt;font style=&quot;font-size: 18px;&quot;&gt;La Plume&lt;/font&gt;" style="whiteSpace=wrap;html=1;rounded=1;" parent="1" vertex="1">
          <mxGeometry x="492.5" y="760" width="165" height="30" as="geometry" />
        </mxCell>
        <mxCell id="4-WogmKs3YgdANA_zJ1u-28" value="&lt;font style=&quot;font-size: 18px;&quot;&gt;Estate&lt;/font&gt;" style="whiteSpace=wrap;html=1;rounded=1;" parent="1" vertex="1">
          <mxGeometry x="697.5" y="460" width="165" height="30" as="geometry" />
        </mxCell>
        <mxCell id="4-WogmKs3YgdANA_zJ1u-29" value="&lt;font style=&quot;font-size: 18px;&quot;&gt;Primavera&lt;/font&gt;" style="whiteSpace=wrap;html=1;rounded=1;" parent="1" vertex="1">
          <mxGeometry x="697.5" y="500" width="165" height="30" as="geometry" />
        </mxCell>
        <mxCell id="4-WogmKs3YgdANA_zJ1u-30" value="&lt;font style=&quot;font-size: 18px;&quot;&gt;Autunno&lt;/font&gt;" style="whiteSpace=wrap;html=1;rounded=1;" parent="1" vertex="1">
          <mxGeometry x="697.5" y="540" width="165" height="30" as="geometry" />
        </mxCell>
        <mxCell id="4-WogmKs3YgdANA_zJ1u-31" value="&lt;font style=&quot;font-size: 18px;&quot;&gt;Inverno&lt;/font&gt;" style="whiteSpace=wrap;html=1;rounded=1;" parent="1" vertex="1">
          <mxGeometry x="697.5" y="580" width="165" height="30" as="geometry" />
        </mxCell>
        <mxCell id="4-WogmKs3YgdANA_zJ1u-32" value="&lt;font style=&quot;font-size: 18px;&quot;&gt;Danza&lt;/font&gt;" style="whiteSpace=wrap;html=1;rounded=1;" parent="1" vertex="1">
          <mxGeometry x="900" y="460" width="165" height="30" as="geometry" />
        </mxCell>
        <mxCell id="4-WogmKs3YgdANA_zJ1u-33" value="&lt;span style=&quot;font-size: 18px;&quot;&gt;Dipingere&lt;/span&gt;" style="whiteSpace=wrap;html=1;rounded=1;" parent="1" vertex="1">
          <mxGeometry x="900" y="500" width="165" height="30" as="geometry" />
        </mxCell>
        <mxCell id="4-WogmKs3YgdANA_zJ1u-34" value="&lt;span style=&quot;font-size: 18px;&quot;&gt;Poesia&lt;/span&gt;" style="whiteSpace=wrap;html=1;rounded=1;" parent="1" vertex="1">
          <mxGeometry x="900" y="540" width="165" height="30" as="geometry" />
        </mxCell>
        <mxCell id="4-WogmKs3YgdANA_zJ1u-35" value="&lt;span style=&quot;font-size: 18px;&quot;&gt;Musica&lt;/span&gt;" style="whiteSpace=wrap;html=1;rounded=1;" parent="1" vertex="1">
          <mxGeometry x="900" y="580" width="165" height="30" as="geometry" />
        </mxCell>
        <mxCell id="4-WogmKs3YgdANA_zJ1u-36" value="&lt;font style=&quot;font-size: 18px;&quot;&gt;Bières de la Meuse&lt;/font&gt;" style="whiteSpace=wrap;html=1;rounded=1;" parent="1" vertex="1">
          <mxGeometry x="1121" y="460" width="209" height="30" as="geometry" />
        </mxCell>
        <mxCell id="4-WogmKs3YgdANA_zJ1u-37" value="&lt;font style=&quot;font-size: 18px;&quot;&gt;&#39;job&#39; cigarette paper&lt;/font&gt;" style="whiteSpace=wrap;html=1;rounded=1;" parent="1" vertex="1">
          <mxGeometry x="1121" y="500" width="209" height="30" as="geometry" />
        </mxCell>
        <mxCell id="4-WogmKs3YgdANA_zJ1u-38" value="&lt;font style=&quot;font-size: 18px;&quot;&gt;Monte Carlo railway services&lt;/font&gt;" style="whiteSpace=wrap;html=1;rounded=1;" parent="1" vertex="1">
          <mxGeometry x="1121" y="540" width="209" height="50" as="geometry" />
        </mxCell>
        <mxCell id="4-WogmKs3YgdANA_zJ1u-39" value="&lt;font style=&quot;font-size: 18px;&quot;&gt;Lance Parfum Rodo&lt;/font&gt;" style="whiteSpace=wrap;html=1;rounded=1;" parent="1" vertex="1">
          <mxGeometry x="1121" y="600" width="209" height="30" as="geometry" />
        </mxCell>
        <mxCell id="4-WogmKs3YgdANA_zJ1u-40" value="&lt;font style=&quot;font-size: 18px;&quot;&gt;Biscuit campagne&lt;/font&gt;" style="whiteSpace=wrap;html=1;rounded=1;" parent="1" vertex="1">
          <mxGeometry x="1121" y="640" width="209" height="30" as="geometry" />
        </mxCell>
        <mxCell id="4-WogmKs3YgdANA_zJ1u-41" value="&lt;font style=&quot;font-size: 18px;&quot;&gt;Cycle Perfecta&lt;/font&gt;" style="whiteSpace=wrap;html=1;rounded=1;" parent="1" vertex="1">
          <mxGeometry x="1121" y="680" width="209" height="30" as="geometry" />
        </mxCell>
        <mxCell id="4-WogmKs3YgdANA_zJ1u-42" value="&lt;font style=&quot;font-size: 18px;&quot;&gt;Nestle food for infants&lt;/font&gt;" style="whiteSpace=wrap;html=1;rounded=1;" parent="1" vertex="1">
          <mxGeometry x="1121" y="720" width="209" height="30" as="geometry" />
        </mxCell>
        <mxCell id="4-WogmKs3YgdANA_zJ1u-43" value="&lt;font style=&quot;font-size: 18px;&quot;&gt;Flirt&lt;/font&gt;" style="whiteSpace=wrap;html=1;rounded=1;" parent="1" vertex="1">
          <mxGeometry x="1121" y="760" width="209" height="30" as="geometry" />
        </mxCell>
        <mxCell id="4-WogmKs3YgdANA_zJ1u-44" value="&lt;font style=&quot;font-size: 18px;&quot;&gt;Moet &amp;amp; Chandon: Dry Imperial&lt;/font&gt;" style="whiteSpace=wrap;html=1;rounded=1;" parent="1" vertex="1">
          <mxGeometry x="1121" y="800" width="209" height="50" as="geometry" />
        </mxCell>
        <mxCell id="4-WogmKs3YgdANA_zJ1u-45" value="&lt;font style=&quot;font-size: 18px;&quot;&gt;Lottery of the Union Southern Moravia&amp;nbsp;&lt;/font&gt;" style="whiteSpace=wrap;html=1;rounded=1;" parent="1" vertex="1">
          <mxGeometry x="1121" y="860" width="209" height="50" as="geometry" />
        </mxCell>
        <mxCell id="UN-OwFrIGuwgfvyjiJY6-1" value="&lt;font style=&quot;font-size: 18px;&quot;&gt;Altro&lt;/font&gt;" style="whiteSpace=wrap;html=1;fillColor=#f5f5f5;strokeColor=#666666;fontColor=#333333;rounded=1;" parent="1" vertex="1">
          <mxGeometry x="1400" y="410" width="120" height="40" as="geometry" />
        </mxCell>
        <mxCell id="UN-OwFrIGuwgfvyjiJY6-3" value="&lt;font style=&quot;font-size: 18px;&quot;&gt;Storia&lt;/font&gt;" style="whiteSpace=wrap;html=1;rounded=1;fillColor=#f5f5f5;fontColor=#333333;strokeColor=#666666;" parent="1" vertex="1">
          <mxGeometry x="40" y="280" width="120" height="40" as="geometry" />
        </mxCell>
        <mxCell id="UN-OwFrIGuwgfvyjiJY6-4" value="" style="edgeStyle=none;orthogonalLoop=1;jettySize=auto;html=1;rounded=0;exitX=0;exitY=0.75;exitDx=0;exitDy=0;entryX=0.417;entryY=0;entryDx=0;entryDy=0;entryPerimeter=0;" parent="1" source="4-WogmKs3YgdANA_zJ1u-2" target="UN-OwFrIGuwgfvyjiJY6-3" edge="1">
          <mxGeometry width="80" relative="1" as="geometry">
            <mxPoint x="260" y="250" as="sourcePoint" />
            <mxPoint x="280" y="270" as="targetPoint" />
            <Array as="points">
              <mxPoint x="280" y="230" />
              <mxPoint x="90" y="230" />
            </Array>
          </mxGeometry>
        </mxCell>
        <mxCell id="UN-OwFrIGuwgfvyjiJY6-6" value="&lt;font style=&quot;font-size: 18px;&quot;&gt;Vienna&lt;/font&gt;" style="whiteSpace=wrap;html=1;rounded=1;" parent="1" vertex="1">
          <mxGeometry x="17.5" y="330" width="165" height="30" as="geometry" />
        </mxCell>
        <mxCell id="UN-OwFrIGuwgfvyjiJY6-7" value="&lt;span style=&quot;font-size: 18px;&quot;&gt;Monaco&lt;/span&gt;" style="whiteSpace=wrap;html=1;rounded=1;" parent="1" vertex="1">
          <mxGeometry x="17.5" y="370" width="165" height="30" as="geometry" />
        </mxCell>
        <mxCell id="UN-OwFrIGuwgfvyjiJY6-8" value="&lt;font style=&quot;font-size: 18px;&quot;&gt;Parigi&lt;/font&gt;" style="whiteSpace=wrap;html=1;rounded=1;" parent="1" vertex="1">
          <mxGeometry x="17.5" y="410" width="165" height="30" as="geometry" />
        </mxCell>
        <mxCell id="UN-OwFrIGuwgfvyjiJY6-9" value="&lt;font style=&quot;font-size: 18px;&quot;&gt;Cremerie&lt;/font&gt;" style="whiteSpace=wrap;html=1;rounded=1;" parent="1" vertex="1">
          <mxGeometry x="17.5" y="450" width="165" height="30" as="geometry" />
        </mxCell>
        <mxCell id="UN-OwFrIGuwgfvyjiJY6-10" value="&lt;font style=&quot;font-size: 18px;&quot;&gt;Sarah Bernardth&lt;/font&gt;" style="whiteSpace=wrap;html=1;rounded=1;" parent="1" vertex="1">
          <mxGeometry x="17.5" y="490" width="165" height="30" as="geometry" />
        </mxCell>
        <mxCell id="UN-OwFrIGuwgfvyjiJY6-11" value="&lt;font style=&quot;font-size: 18px;&quot;&gt;Mostra&lt;/font&gt;" style="whiteSpace=wrap;html=1;rounded=1;fillColor=#f5f5f5;fontColor=#333333;strokeColor=#666666;" parent="1" vertex="1">
          <mxGeometry x="340" y="280" width="120" height="40" as="geometry" />
        </mxCell>
        <mxCell id="UN-OwFrIGuwgfvyjiJY6-13" value="&lt;font style=&quot;font-size: 18px;&quot;&gt;Praga&lt;/font&gt;" style="whiteSpace=wrap;html=1;rounded=1;" parent="1" vertex="1">
          <mxGeometry x="317.5" y="330" width="165" height="30" as="geometry" />
        </mxCell>
      </root>
    </mxGraphModel>
  </diagram>
</mxfile>
